<svg width="64" height="64" viewBox="0 0 121 121" fill="none" xmlns="http://www.w3.org/2000/svg">
  <defs>
    <filter id="ogGlow" x="-35%" y="-35%" width="170%" height="170%" color-interpolation-filters="sRGB">
      <feGaussianBlur stdDeviation="2.8" result="blur"/>
      <feMerge>
        <feMergeNode in="blur"/>
        <feMergeNode in="SourceGraphic"/>
      </feMerge>
    </filter>
    <linearGradient id="ogFaviconGradient" x1="8" y1="8" x2="110" y2="110" gradientUnits="userSpaceOnUse">
      <stop offset="0%" stop-color="#87E8FF"/>
      <stop offset="52%" stop-color="#57D2E6"/>
      <stop offset="100%" stop-color="#40C88D"/>
    </linearGradient>
    <radialGradient id="ogBg" cx="0.5" cy="0.5" r="0.9">
      <stop offset="0%" stop-color="#0D1B31"/>
      <stop offset="100%" stop-color="#08111E"/>
    </radialGradient>
  </defs>
  <rect x="2" y="2" width="117" height="117" rx="28" fill="url(#ogBg)" stroke="#2B5072" stroke-width="4"/>
  <g filter="url(#ogGlow)">
    <path fill="url(#ogFaviconGradient)" d="M102.823 36.71a14.4 14.4 0 0 0-10.109-4.12H88.36v-4.358c0-3.801-1.462-7.393-4.116-10.114L70.82 4.363A14.36 14.36 0 0 0 60.466 0c-3.93 0-7.606 1.55-10.352 4.363L36.69 18.12a14.4 14.4 0 0 0-4.117 10.114v4.359h-4.356c-3.8 0-7.39 1.463-10.108 4.119L4.36 50.142A14.37 14.37 0 0 0 0 60.501a14.37 14.37 0 0 0 4.36 10.358L18.11 84.29a14.39 14.39 0 0 0 10.107 4.12h4.356v4.356a14.4 14.4 0 0 0 4.117 10.114l13.424 13.757A14.35 14.35 0 0 0 60.466 121c3.93 0 7.607-1.549 10.353-4.363l13.424-13.757a14.4 14.4 0 0 0 4.116-10.114V88.41h4.355c3.8 0 7.39-1.463 10.109-4.119l13.749-13.431a14.37 14.37 0 0 0 4.36-10.358c0-3.932-1.549-7.611-4.36-10.359l-13.749-13.431Zm-61.131 5.004h5.397c1.405 0 2.733.54 3.738 1.523l3.114 3.041-3.254 3.18a14 14 0 0 0-.574.556l-.128.128c-.19.187-.376.377-.535.552l-3.197 3.276-3.04-3.114a5.33 5.33 0 0 1-1.521-3.741zm0 32.17a5.32 5.32 0 0 1 1.522-3.74l3.04-3.116 3.166 3.246q.274.297.566.583l.127.127c.183.188.371.37.543.528l3.285 3.209-3.113 3.04a5.32 5.32 0 0 1-3.739 1.524h-5.397zM36.69 63.77a14.4 14.4 0 0 0-4.117 10.113v5.402h-4.356a5.32 5.32 0 0 1-3.738-1.523L10.73 64.332A5.31 5.31 0 0 1 9.118 60.5c0-1.454.573-2.815 1.613-3.831l13.748-13.432a5.32 5.32 0 0 1 3.738-1.523h4.356v5.4c0 3.803 1.463 7.395 4.117 10.114l3.191 3.271-3.19 3.27Zm42.552 28.995a5.32 5.32 0 0 1-1.523 3.741l-13.423 13.757a5.3 5.3 0 0 1-3.829 1.614 5.3 5.3 0 0 1-3.83-1.615L43.214 96.507a5.33 5.33 0 0 1-1.522-3.74v-4.358h5.397c3.799 0 7.389-1.463 10.109-4.119l3.268-3.193 3.269 3.194a14.4 14.4 0 0 0 10.108 4.118h5.399v4.357ZM54.407 60.5a6.07 6.07 0 0 1 6.06-6.063c3.34 0 6.059 2.72 6.059 6.063a6.07 6.07 0 0 1-6.06 6.063 6.067 6.067 0 0 1-6.059-6.063m24.835 18.786h-5.4a5.32 5.32 0 0 1-3.737-1.523l-3.114-3.041 3.255-3.18q.294-.27.568-.552l.133-.133c.192-.187.376-.378.534-.55l3.199-3.278 3.04 3.115a5.33 5.33 0 0 1 1.522 3.74zm0-32.17a5.33 5.33 0 0 1-1.523 3.74l-3.04 3.115-3.188-3.267a14 14 0 0 0-.545-.561l-.128-.13c-.19-.194-.384-.382-.562-.545l-3.265-3.189 3.113-3.041a5.32 5.32 0 0 1 3.739-1.523h5.399v5.4Zm0-14.524h-5.4a14.39 14.39 0 0 0-10.108 4.119l-3.268 3.193-3.269-3.193a14.39 14.39 0 0 0-10.108-4.12h-5.397v-4.358c0-1.406.54-2.735 1.522-3.74l13.423-13.756a5.3 5.3 0 0 1 3.83-1.614 5.3 5.3 0 0 1 3.829 1.614l13.423 13.755a5.33 5.33 0 0 1 1.523 3.741zm30.959 31.74-13.748 13.43a5.32 5.32 0 0 1-3.739 1.524H88.36v-5.402a14.4 14.4 0 0 0-4.116-10.114l-3.192-3.27 3.192-3.27a14.4 14.4 0 0 0 4.116-10.114v-5.401h4.355a5.32 5.32 0 0 1 3.74 1.523L110.2 56.67a5.31 5.31 0 0 1 1.613 3.831 5.31 5.31 0 0 1-1.613 3.83Z"/>
  </g>
</svg>
